<svg xmlns="http://www.w3.org/2000/svg" xmlns:xlink="http://www.w3.org/1999/xlink" viewBox="0 0 2803.757 2800"><defs><style>.cls-1{opacity:0.3;fill:url(#linear-gradient);}.cls-2{opacity:0.74;fill:url(#linear-gradient-2);}.cls-3,.cls-6,.cls-8,.cls-9{fill:#fff;}.cls-3{opacity:0.43;}.cls-4{fill:url(#linear-gradient-3);}.cls-5{fill:url(#linear-gradient-4);}.cls-6{opacity:0.6;}.cls-7{fill:url(#linear-gradient-5);}.cls-8{opacity:0.61;}.cls-10{fill:url(#New_Gradient_Swatch_1);}.cls-11{fill:url(#New_Gradient_Swatch_19);}.cls-12{fill:url(#linear-gradient-6);}.cls-13{fill:url(#linear-gradient-7);}.cls-14{fill:url(#New_Gradient_Swatch_1-2);}.cls-15{fill:url(#linear-gradient-8);}.cls-16{fill:url(#New_Gradient_Swatch_1-3);}.cls-17{fill:url(#linear-gradient-9);}.cls-18{fill:url(#linear-gradient-10);}.cls-19{fill:url(#New_Gradient_Swatch_1-4);}.cls-20{fill:url(#linear-gradient-11);}.cls-21{fill:url(#linear-gradient-12);}.cls-22{fill:url(#New_Gradient_Swatch_14);}.cls-23{fill:url(#New_Gradient_Swatch_14-2);}.cls-24{fill:url(#linear-gradient-13);}.cls-25{fill:url(#linear-gradient-14);}.cls-26{fill:url(#New_Gradient_Swatch_1-5);}.cls-27{fill:url(#linear-gradient-15);}.cls-28{fill:url(#New_Gradient_Swatch_1-6);}.cls-29{fill:url(#New_Gradient_Swatch_1-7);}.cls-30{fill:url(#linear-gradient-16);}.cls-31{fill:url(#linear-gradient-17);}.cls-32{fill:url(#linear-gradient-18);}.cls-33{fill:url(#linear-gradient-19);}.cls-34{fill:url(#linear-gradient-20);}</style><linearGradient id="linear-gradient" x1="3598.592" y1="4076.806" x2="1110.282" y2="986.481" gradientUnits="userSpaceOnUse"><stop offset="0" stop-color="#b37cff"/><stop offset="1" stop-color="#f895e7"/></linearGradient><linearGradient id="linear-gradient-2" x1="3087.225" y1="2272.191" x2="1622.441" y2="4123.147" gradientTransform="matrix(1.003, -0.225, 0.348, 0.815, -788.099, 90.488)" xlink:href="#linear-gradient"/><linearGradient id="linear-gradient-3" x1="1958.958" y1="2206.716" x2="3207.443" y2="1029.281" gradientUnits="userSpaceOnUse"><stop offset="0" stop-color="#a737d5"/><stop offset="1" stop-color="#ef497a"/></linearGradient><linearGradient id="linear-gradient-4" x1="508.908" y1="3044.185" x2="4576.87" y2="-1620.404" gradientUnits="userSpaceOnUse"><stop offset="0" stop-color="#53d8ff"/><stop offset="1" stop-color="#3840f7"/></linearGradient><linearGradient id="linear-gradient-5" x1="1603.415" y1="-1026.023" x2="952.898" y2="966.825" xlink:href="#linear-gradient-4"/><linearGradient id="New_Gradient_Swatch_1" x1="2626.197" y1="1056.812" x2="2466.442" y2="1443.032" gradientTransform="translate(126.984 357.245) rotate(9.253)" gradientUnits="userSpaceOnUse"><stop offset="0" stop-color="#2b3582"/><stop offset="1" stop-color="#150e42"/></linearGradient><linearGradient id="New_Gradient_Swatch_19" x1="2449.006" y1="2225.528" x2="2521.758" y2="4426.256" gradientUnits="userSpaceOnUse"><stop offset="0" stop-color="#fdf53f"/><stop offset="1" stop-color="#d93c65"/></linearGradient><linearGradient id="linear-gradient-6" x1="2027.979" y1="2430.674" x2="2509.999" y2="3595.034" gradientUnits="userSpaceOnUse"><stop offset="0" stop-color="#f9b776"/><stop offset="1" stop-color="#f47960"/></linearGradient><linearGradient id="linear-gradient-7" x1="-7049.56" y1="2428.172" x2="-6567.54" y2="3592.531" gradientTransform="matrix(-1, 0, 0, 1, -4167.074, 0)" xlink:href="#linear-gradient-6"/><linearGradient id="New_Gradient_Swatch_1-2" x1="2003.03" y1="2125.797" x2="1977.939" y2="3141.983" gradientTransform="matrix(1, 0, 0, 1, 0, 0)" xlink:href="#New_Gradient_Swatch_1"/><linearGradient id="linear-gradient-8" x1="2506.438" y1="2369.932" x2="2331.812" y2="3532.1" xlink:href="#linear-gradient-4"/><linearGradient id="New_Gradient_Swatch_1-3" x1="2760.203" y1="3153.689" x2="3023.611" y2="3153.689" gradientTransform="translate(9.525 16.814) rotate(0.441)" xlink:href="#New_Gradient_Swatch_1"/><linearGradient id="linear-gradient-9" x1="3387.431" y1="2845.638" x2="2771.859" y2="3370.213" xlink:href="#linear-gradient-4"/><linearGradient id="linear-gradient-10" x1="2919.303" y1="2716.823" x2="2641.259" y2="3469.935" xlink:href="#linear-gradient-6"/><linearGradient id="New_Gradient_Swatch_1-4" x1="-6983.611" y1="3102.244" x2="-6720.093" y2="3102.244" gradientTransform="matrix(-1, -0.02, -0.02, 1, -4813.996, -50.84)" xlink:href="#New_Gradient_Swatch_1"/><linearGradient id="linear-gradient-11" x1="1499.821" y1="2295.063" x2="2002.986" y2="3515.507" xlink:href="#linear-gradient-4"/><linearGradient id="linear-gradient-12" x1="2362.236" y1="2489.871" x2="2084.046" y2="3243.38" xlink:href="#linear-gradient-6"/><linearGradient id="New_Gradient_Swatch_14" x1="3037.154" y1="2702.286" x2="2314.341" y2="3245.259" gradientUnits="userSpaceOnUse"><stop offset="0" stop-color="#7c27dd"/><stop offset="1" stop-color="#2b41d9"/></linearGradient><linearGradient id="New_Gradient_Swatch_14-2" x1="2383.861" y1="3189.142" x2="2194.422" y2="2706.073" xlink:href="#New_Gradient_Swatch_14"/><linearGradient id="linear-gradient-13" x1="2451.123" y1="2526.812" x2="2444.71" y2="1968.793" xlink:href="#linear-gradient-6"/><linearGradient id="linear-gradient-14" x1="2560.987" y1="1432.31" x2="2579.551" y2="981.136" gradientTransform="translate(126.984 357.245) rotate(9.253)" xlink:href="#linear-gradient-6"/><linearGradient id="New_Gradient_Swatch_1-5" x1="2616.412" y1="1052.504" x2="2458.062" y2="1435.328" xlink:href="#New_Gradient_Swatch_1"/><linearGradient id="linear-gradient-15" x1="2367.185" y1="2099.909" x2="2396.276" y2="1392.87" gradientTransform="translate(31.263 60.868) rotate(1.754)" xlink:href="#linear-gradient-6"/><linearGradient id="New_Gradient_Swatch_1-6" x1="1720.875" y1="884.445" x2="2182.642" y2="2462.575" gradientTransform="matrix(1, 0, 0, 1, 0, 0)" xlink:href="#New_Gradient_Swatch_1"/><linearGradient id="New_Gradient_Swatch_1-7" x1="1420.855" y1="384.648" x2="1882.623" y2="1962.78" gradientTransform="matrix(1, 0, 0, 1, 0, 0)" xlink:href="#New_Gradient_Swatch_1"/><linearGradient id="linear-gradient-16" x1="406.731" y1="4090.676" x2="922.526" y2="2075.477" gradientUnits="userSpaceOnUse"><stop offset="0" stop-color="#7a2ddb"/><stop offset="1" stop-color="#7077ff"/></linearGradient><linearGradient id="linear-gradient-17" x1="716.258" y1="2458.38" x2="937.519" y2="2458.38" gradientTransform="matrix(1, 0, 0, 1, 0, 0)" xlink:href="#New_Gradient_Swatch_1"/><linearGradient id="linear-gradient-18" x1="2972.015" y1="172.687" x2="1484.61" y2="1588.119" xlink:href="#linear-gradient-16"/><linearGradient id="linear-gradient-19" x1="1545.608" y1="3241.872" x2="1661.89" y2="2350.377" gradientTransform="matrix(0.973, 0.229, -0.229, 0.973, 198.936, -279.693)" xlink:href="#linear-gradient-3"/><linearGradient id="linear-gradient-20" x1="1529.019" y1="2615.557" x2="1715.939" y2="2615.557" gradientTransform="matrix(0.973, 0.229, -0.229, 0.973, 198.936, -279.693)" xlink:href="#New_Gradient_Swatch_1"/></defs><title>build</title><g id="Illustration"><path class="cls-1" d="M2914.042,2858.093c-57.155,60.171-111.235,98.974-153.963,129.632C2257.825,3348.1,1663.525,3243.051,1537.22,3217.4c-186.514-37.882-547.04-111.107-807.695-417.631C335.177,2336.021,396.583,1605.4,702.466,1123.112c55.951-88.219,351.5-577.856,952.2-656.378,363.538-47.521,787.306,48.323,1094.187,305.428C3393.024,1311.85,3347.166,2402.114,2914.042,2858.093Z" transform="translate(-453.122 -455)"/><path class="cls-2" d="M3239.9,1142.585c-1.544-13.457-24.669-17.5-31.161-5.433-62.757,116.66-239.7,417.821-462.329,558.556-362.484,229.149-644.5,646.685-475.368,909.66C2271.043,2605.368,3408.105,2608.8,3239.9,1142.585Z" transform="translate(-453.122 -455)"/><path class="cls-3" d="M3180.89,1313.58c-1.082,4.1-2.4,7.371-3.609,10.987l-3.871,10.538c-2.653,6.991-5.284,13.992-8.031,20.945-5.456,13.92-11.135,27.747-16.866,41.552-11.46,27.615-23.548,54.957-35.746,82.252q-37.1,81.655-78.436,161.308c-54.713,106.367-115.739,209.464-181.655,309.324-33.091,49.857-68.144,98.394-104.372,146.023l-27.667,35.346c-4.555,5.936-9.314,11.709-14.088,17.471l-14.269,17.327-14.269,17.324c-4.807,5.734-9.79,11.319-14.677,16.984-9.852,11.264-19.544,22.669-29.6,33.752q-60.36,66.5-126.37,127.5c-22.544,19.694-44.7,39.816-68.274,58.276-22.89,19.284-47.359,36.563-71.34,54.406a1.691,1.691,0,0,1-2.032-2.7l.048-.035a1757.579,1757.579,0,0,0,136.845-115.084q64.869-61.553,124.353-128.413c39.291-44.819,77.372-90.709,113.457-138.174q53.965-71.313,103.75-145.671,49.573-74.453,95.228-151.444l22.576-38.623,22.005-38.953c14.49-26.069,28.9-52.187,42.82-78.575q41.934-79.062,79.981-160.126c12.616-27.037,25.129-54.132,37.014-81.5q8.936-20.517,17.534-41.175c2.893-6.875,5.667-13.8,8.466-20.706l4.082-10.4c1.257-3.428,2.712-7.1,3.662-10.194l.139-.452a1.67,1.67,0,0,1,3.211.918Z" transform="translate(-453.122 -455)"/><path class="cls-4" d="M3019.854,567.956c-2.788-15.379-24.388-16.8-29.1-1.9-45.59,144.069-176.968,518.1-366.572,712.625C2315.46,1595.419,2099.7,2119.154,2281.5,2400.095,2281.5,2400.095,3323.635,2243.646,3019.854,567.956Z" transform="translate(-453.122 -455)"/><path class="cls-3" d="M2983.376,774.479c-.54,4.523-1.379,8.468-2.1,12.632l-2.387,12.31-5.043,24.547c-3.454,16.343-7.082,32.645-10.754,48.939q-11.159,48.846-23.423,97.433c-16.378,64.771-34.443,129.107-53.507,193.145q-28.508,96.092-61.643,190.74l-8.2,23.681-8.509,23.575c-5.74,15.691-11.192,31.486-17.195,47.082l-17.688,46.9L2754.54,1542.1c-49.7,124.089-105.92,245.7-170.556,362.807-3.938,7.374-8.112,14.618-12.338,21.832l-12.584,21.694-12.583,21.691c-4.284,7.178-8.759,14.244-13.129,21.37-8.867,14.176-17.4,28.555-26.54,42.557l-27.651,41.849c-37.912,55.088-78.247,108.538-122.138,158.976a1.691,1.691,0,0,1-2.58-2.186l.014-.018a1901.53,1901.53,0,0,0,118.889-160.67l27.119-41.987c8.958-14.044,17.319-28.47,26.006-42.683,4.28-7.146,8.665-14.23,12.859-21.427l12.316-21.749,12.314-21.747c4.137-7.23,8.22-14.491,12.068-21.883l23.6-44.064c7.773-14.737,15.144-29.686,22.735-44.519,3.747-7.442,7.593-14.832,11.257-22.315l10.822-22.534,10.823-22.532c3.636-7.5,7.22-15.019,10.619-22.628,28.2-60.411,53.986-121.915,79.174-183.641,49.9-123.679,93.442-249.876,132.979-377.281q29.5-95.61,55.285-192.33,12.966-48.328,24.937-96.919c3.924-16.211,7.806-32.433,11.513-48.693l5.423-24.417,2.573-12.229c.779-4.045,1.684-8.268,2.231-12.021l.054-.368a1.679,1.679,0,0,1,3.328.441Z" transform="translate(-453.122 -455)"/><path class="cls-5" d="M580.72,462.356H2700.255c57.793,0,104.346,66.263,103.3,147.033l-29.82,2298.5c-1.4,108.177-65.051,194.456-195.322,193.1L525.564,3064.978c-3.7-.993-49.178-65.405-49.144-144.49l.986-2313.8C477.44,526.96,523.685,462.356,580.72,462.356Z" transform="translate(-453.122 -455)"/><path class="cls-6" d="M627.463,524.6H2662.714c55.494,0,100.2,62.96,99.19,139.7l-28.634,2183.9c-1.347,102.784-62.464,184.762-136.784,183.472L625.272,2997.464c-54.324-.943-97.994-62.144-97.962-137.286l.947-2198.445C528.29,585.983,572.7,524.6,627.463,524.6Z" transform="translate(-453.122 -455)"/><path class="cls-7" d="M100.1,62.763h2181.15a24.449,24.449,0,0,1,24.449,24.449V396.764a0,0,0,0,1,0,0H74.189a0,0,0,0,1,0,0V88.67A25.907,25.907,0,0,1,100.1,62.763Z"/><path class="cls-8" d="M2510.221,709.377,1352.517,698.4c-27.291-.259-49.249-18.284-49.253-40.432l-.008-38.6c0-17.088,17.066-30.943,38.124-30.943H2518.52c20.759,0,37.144,14.312,35.619,31.112L2548.58,680.8C2547.105,697.049,2530.3,709.568,2510.221,709.377Z" transform="translate(-453.122 -455)"/><path class="cls-6" d="M2656.274,1051.369H629.742a24.3,24.3,0,0,1-24.345-24.251V962.25A24.3,24.3,0,0,1,629.957,938l2026.532,17.849a24.3,24.3,0,0,1,24.129,24.25v47.019A24.3,24.3,0,0,1,2656.274,1051.369Z" transform="translate(-453.122 -455)"/><path class="cls-9" d="M1114.047,699.414a59.325,59.325,0,1,1,59.325-59.326A59.391,59.391,0,0,1,1114.047,699.414Zm0-111.883a52.559,52.559,0,1,0,52.559,52.557A52.616,52.616,0,0,0,1114.047,587.531Z" transform="translate(-453.122 -455)"/><path class="cls-9" d="M920.43,703.95a59.325,59.325,0,1,1,59.324-59.326A59.391,59.391,0,0,1,920.43,703.95Zm0-111.883a52.559,52.559,0,1,0,52.558,52.557A52.617,52.617,0,0,0,920.43,592.067Z" transform="translate(-453.122 -455)"/><path class="cls-9" d="M734.381,703.95a59.325,59.325,0,1,1,59.325-59.326A59.392,59.392,0,0,1,734.381,703.95Zm0-111.883a52.559,52.559,0,1,0,52.559,52.557A52.616,52.616,0,0,0,734.381,592.067Z" transform="translate(-453.122 -455)"/><path class="cls-6" d="M1855.186,1246.956l-379.018-3.15a21.5,21.5,0,0,1-21.322-21.679l.088-10.57a21.5,21.5,0,0,1,20.968-21.316l379.123-9.381a21.5,21.5,0,0,1,22.032,21.674l-.192,23.1A21.5,21.5,0,0,1,1855.186,1246.956Z" transform="translate(-453.122 -455)"/><path class="cls-6" d="M1936.873,1935.67l-558.019-4.638A34.143,34.143,0,0,1,1345,1896.606l4.645-558.888a34.142,34.142,0,0,1,33.545-33.854l551.04,10.454a42.576,42.576,0,0,1,41.766,42.934l-4.693,544.559A34.145,34.145,0,0,1,1936.873,1935.67Z" transform="translate(-453.122 -455)"/><path class="cls-6" d="M1150.088,1246.956l-379.019-3.15a21.5,21.5,0,0,1-21.322-21.679l.088-10.57a21.5,21.5,0,0,1,20.969-21.316l379.123-9.381a21.5,21.5,0,0,1,22.032,21.674l-.192,23.1A21.5,21.5,0,0,1,1150.088,1246.956Z" transform="translate(-453.122 -455)"/><path class="cls-6" d="M1231.775,1935.67l-558.019-4.638a34.143,34.143,0,0,1-33.858-34.426l4.645-558.888a34.142,34.142,0,0,1,33.545-33.854l551.039,10.454a42.576,42.576,0,0,1,41.767,42.934l-4.693,544.559A34.145,34.145,0,0,1,1231.775,1935.67Z" transform="translate(-453.122 -455)"/><path class="cls-6" d="M2562.374,1260.175l-379.018-3.151a21.5,21.5,0,0,1-21.322-21.679l.088-10.57a21.5,21.5,0,0,1,20.969-21.316l379.122-9.38a21.5,21.5,0,0,1,22.033,21.673l-.192,23.1A21.5,21.5,0,0,1,2562.374,1260.175Z" transform="translate(-453.122 -455)"/><path class="cls-6" d="M2644.062,1948.888l-558.019-4.638a34.144,34.144,0,0,1-33.859-34.425l4.646-558.889a34.143,34.143,0,0,1,33.545-33.854l551.039,10.454a42.575,42.575,0,0,1,41.766,42.935l-4.693,544.559A34.142,34.142,0,0,1,2644.062,1948.888Z" transform="translate(-453.122 -455)"/><rect class="cls-6" x="210.785" y="1579.161" width="2009.61" height="98.668" rx="8.989"/><rect class="cls-6" x="215.169" y="1734.883" width="2009.609" height="98.668" rx="8.989"/><rect class="cls-6" x="200.376" y="1910.108" width="2009.61" height="98.668" rx="8.989"/><rect class="cls-6" x="204.76" y="2065.83" width="2009.609" height="98.668" rx="8.989"/><rect class="cls-6" x="200.376" y="2230.189" width="2009.61" height="98.668" rx="8.989"/><path class="cls-10" d="M2359.505,1882.337c-1.143,2.165-35.7,26.508-35.7,26.508s-24.019,132.251,20.028,197.368,194.142-50.824,194.142-50.824,84.427-13.2,126.834-179.2c9.729-38.084-51.115-9.146-118.9-2.132C2458.51,1883.106,2359.505,1882.337,2359.505,1882.337Z" transform="translate(-453.122 -455)"/><path class="cls-11" d="M2209.658,2296.924a310.14,310.14,0,0,1,94.252-43.849c12.661-3.445,81.016,16.422,123.272,15.451,58-1.334,117.046-27.731,164.857-15.816,47.493,11.836,86.364,27.294,108.808,43.257,67.181,47.782,106.624,136.877,130.661,225.128-45.514,46.721-102.791,67.486-102.791,67.486l-10.585,428.969-253.657,129.781-289.519-145.355,10.371-419.206s-91.937-42.814-98.683-58.388S2128.546,2352.693,2209.658,2296.924Z" transform="translate(-453.122 -455)"/><path class="cls-12" d="M2090.926,2522.509s-123.2,341.561,157.742,481.941c58.335-7.75,35.9-104.626,35.9-104.626s-122.071-27.015-85.409-311.941C2165.4,2560.112,2090.926,2522.509,2090.926,2522.509Z" transform="translate(-453.122 -455)"/><path class="cls-13" d="M2825.584,2522.509s84.775,356.543-157.741,481.941c-58.335-7.75-35.9-104.626-35.9-104.626s98.383-48.452,85.41-311.941C2751.107,2560.112,2825.584,2522.509,2825.584,2522.509Z" transform="translate(-453.122 -455)"/><rect class="cls-14" x="1718.495" y="2197.79" width="556.239" height="375.65" rx="5.051"/><path class="cls-15" d="M2482.546,2754.52c2.949,19.93-7.729,38.02-27.658,40.969a36.479,36.479,0,0,1-41.426-30.746c-2.949-19.93,6.173-39.724,26.1-42.673S2479.6,2734.591,2482.546,2754.52Z" transform="translate(-453.122 -455)"/><path class="cls-16" d="M2971.83,3139.805c-63.657-14.612-210.784-6.756-210.784-6.756l-5.984,16.206-9.91,80.552s140.113,25.254,209.177,25.193a65.019,65.019,0,0,0,19.379-2.9c2.106-1.889,4.164-3.849,6.11-5.975C3009.119,3214.128,3000.657,3167.119,2971.83,3139.805Z" transform="translate(-453.122 -455)"/><path class="cls-17" d="M2978.138,3141.4c-1.994-.561-4.105-1.092-6.308-1.6,28.827,27.314,37.289,74.323,7.988,106.324-1.946,2.126-4,4.086-6.11,5.975C3025.519,3235.978,3031.653,3156.457,2978.138,3141.4Z" transform="translate(-453.122 -455)"/><path class="cls-18" d="M2718.772,3128.514l24.913,1.062c13.385.571,26,7.093,35,18.1a59.052,59.052,0,0,1,12.84,40.391,46.5,46.5,0,0,1-13.481,30.729,37.748,37.748,0,0,1-29.152,11.072l-38.119-2.713Z" transform="translate(-453.122 -455)"/><path class="cls-19" d="M1881.057,3132.057c64-12.653,210.872-.285,210.872-.285l5.577,16.383,7.9,80.824s-140.689,20.946-209.726,18.765a65.188,65.188,0,0,1-19.3-3.49c-2.058-1.952-4.066-3.975-5.959-6.159C1841.927,3205.207,1851.56,3158.475,1881.057,3132.057Z" transform="translate(-453.122 -455)"/><path class="cls-20" d="M1874.711,3133.46c2.008-.5,4.131-.965,6.346-1.4-29.5,26.418-39.13,73.15-10.638,106.038,1.893,2.184,3.9,4.207,5.959,6.159C1824.989,3226.546,1820.842,3146.866,1874.711,3133.46Z" transform="translate(-453.122 -455)"/><path class="cls-21" d="M2134.3,3128.535l-24.93.3c-13.395.16-26.167,6.292-35.438,17.015a58.762,58.762,0,0,0-13.843,39.981,46.774,46.774,0,0,0,12.709,31.131,37.958,37.958,0,0,0,28.865,11.962l38.172-1.543Z" transform="translate(-453.122 -455)"/><path class="cls-22" d="M2989.632,2887.284c-28.868-66.441-99.475-77.227-159.57-46.16-1.046,1.373-381.636,196.431-717.272,281.918,9.609,30.8,14.549,63.58,15.627,95.8q.291,10.767-.347,21.243c257.383-13.22,536.721-99.057,776.756-174.492C2979.261,3041.586,3021.629,2960.925,2989.632,2887.284Z" transform="translate(-453.122 -455)"/><path class="cls-23" d="M2720.6,3223.887q-1.509-55.7,21.659-103.709c.441-1.465.97-2.873,1.437-4.321-19.166-5.935-43.926-13.978-76.453-25.012-238.334-81.565-420.156-163.922-593.685-258.728-67.413-36.83-144.062-12.147-165.642,67.621-19.265,71.208,24.455,128.145,87.246,153.367,215.86,86.709,532.944,165.908,725.838,178.866C2720.857,3229.275,2720.691,3226.576,2720.6,3223.887Z" transform="translate(-453.122 -455)"/><path class="cls-24" d="M2303.91,2253.075s25.632,111.077,150.078,108.771c126.752-2.307,138.051-109.136,138.051-109.136l-82.8-17.716-6.919-92.257-124.546,9.226-2.307,87.643Z" transform="translate(-453.122 -455)"/><path class="cls-25" d="M2389.737,1870.812s-132.618,256.888,24.7,319.212c110.963,43.961,180.535-170.593,159.784-228.7-32.085-89.852-53.215-79.19-53.215-79.19Z" transform="translate(-453.122 -455)"/><path class="cls-9" d="M2574.218,1961.32c-.375-1.051-.7-1.976-.995-2.848.507,4.739.78,9.675.834,14.764q.3-5.43.494-10.874C2574.437,1962.018,2574.336,1961.653,2574.218,1961.32Z" transform="translate(-453.122 -455)"/><path class="cls-9" d="M2573.223,1958.472c-.188-1.757-.4-3.5-.648-5.2C2579.4,1964.638,2566.273,1938.152,2573.223,1958.472Z" transform="translate(-453.122 -455)"/><path class="cls-26" d="M2635.613,1801.842c71.057-16.166,21.736,203.645-84.053,167.608s-155.075-58.17-171.561-29.12-43.956,147.874-53.085,86.263c-8.532-57.584-16.79-163.114,38.795-186.146,31.561-13.077,59.314,15.263,81.067,8.169,33.5-10.925,65.752-11.291,85.65.181C2570.074,1870.5,2590.451,1812.116,2635.613,1801.842Z" transform="translate(-453.122 -455)"/><path class="cls-27" d="M2368.165,1983.066s-22.939-34.639-33.391.81-3.817,84.427,17.208,61.658S2368.165,1983.066,2368.165,1983.066Z" transform="translate(-453.122 -455)"/><path class="cls-28" d="M2375.365,1702.43H1381.21a79.511,79.511,0,0,1-79.511-79.511V1190.111a79.51,79.51,0,0,1,82.053-79.47l994.155,31.8a79.511,79.511,0,0,1,76.969,79.47v401.011A79.511,79.511,0,0,1,2375.365,1702.43Z" transform="translate(-453.122 -455)"/><polygon class="cls-29" points="1580.779 1244.16 1712.884 1403.785 1763.926 1244.16 1580.779 1244.16"/><path class="cls-9" d="M1756.361,1537.931l-222.325-115.153v-36.507l222.325-115.892V1330l-151.835,74.033,151.835,74.525Z" transform="translate(-453.122 -455)"/><path class="cls-9" d="M1973.918,1236.9l-114.029,352.365-59.244-.516L1916.372,1233.8Z" transform="translate(-453.122 -455)"/><path class="cls-9" d="M2015.029,1484.348l137.113-63.3-137.113-80.474v-57.7l197.48,125.759v33.507l-197.48,99.67Z" transform="translate(-453.122 -455)"/><path class="cls-30" d="M923.429,2268.066c-17.3-36.054-29.684-73.8-32.571-114.89-7.275-103.541,52.915-198.892,97.134-288.039,40.639-81.935,70.845-204.024-66.285-193.159-109.25,8.656-237.689,117.532-252.343,231.062-17.342,134.369,48.073,303.814-29.483,425.87-108.5,170.751-186.759,131.62-186.759,419.763,0,123.121,68.2,191.035,146.311,228.443a326.9,326.9,0,0,0,368.538-59.881c86.783-83.986,138.384-204.721,120.932-325.933C1071.276,2468.879,975.257,2376.04,923.429,2268.066Z" transform="translate(-453.122 -455)"/><path class="cls-31" d="M831.764,3195.731a5.075,5.075,0,0,1-4.919-3.842c-67.988-271.377-104.995-517.388-110-731.2-4.006-171.262,12.4-322.418,48.757-449.261,62.161-216.867,159.822-286.627,163.95-289.492a5.075,5.075,0,0,1,5.79,8.336c-.987.687-99.346,71.279-160.368,285.3-56.426,197.9-91.524,562.2,61.713,1173.859a5.075,5.075,0,0,1-4.926,6.307Z" transform="translate(-453.122 -455)"/><path class="cls-32" d="M1032.29,1964.3a45.769,45.769,0,0,0-17.266-1.169c-34.176,3.93-48.211,39.971-58.252,68.15-8.6,24.132-18.732,53.423-13.654,79.566,5.49,28.266,35.507,51.322,57.288,22.624,24.758-32.621,61.908-82.705,62.133-125.932C1062.651,1986.055,1050.587,1969.266,1032.29,1964.3Z" transform="translate(-453.122 -455)"/><path class="cls-33" d="M1409.613,2728.91c15.472-101.926-21.572-218.943-40.062-326.729-9.776-56.99-14.3-113.546-5.144-170.961,9.1-57.084,35.922-118.824,11.192-175.7-49.834-114.579-168.3-62.435-236.157,23.822-78.746,100.1-100.272,263.662-130.181,389.612-18.031,75.929-45.192,153.809-54.7,231.183C938.8,2828.316,967.783,2917.3,1029.1,2977.4a185.554,185.554,0,0,0,220.32,29.529C1314.409,2970.734,1384.654,2893.339,1409.613,2728.91Z" transform="translate(-453.122 -455)"/><path class="cls-34" d="M1138.6,3202.987a5.075,5.075,0,0,1-5-4.233c-.261-1.546-26.031-157.062-26.707-371.657-.622-198.132,20.623-488.682,125.373-747.689a5.075,5.075,0,1,1,9.409,3.806c-104.107,257.415-125.239,546.484-124.632,743.655.655,213.809,26.306,368.661,26.564,370.2a5.075,5.075,0,0,1-4.161,5.848A5.342,5.342,0,0,1,1138.6,3202.987Z" transform="translate(-453.122 -455)"/></g></svg>