<svg id="Layer_1" data-name="Layer 1" xmlns="http://www.w3.org/2000/svg" xmlns:xlink="http://www.w3.org/1999/xlink" viewBox="0 0 1782.524 1320.733"><defs><style>.cls-1{fill:#eaf2fc;}.cls-2{fill:#1b3d9e;}.cls-3{fill:#fc476a;}.cls-10,.cls-14,.cls-4{fill:#1c056d;}.cls-5{clip-path:url(#clip-path);}.cls-17,.cls-6{fill:#6880e4;}.cls-6{opacity:0.2;}.cls-7{fill:#d40221;}.cls-8{fill:#fe8e9c;}.cls-9{clip-path:url(#clip-path-2);}.cls-10{opacity:0.47;}.cls-11{clip-path:url(#clip-path-3);}.cls-12{fill:#e57492;}.cls-13{clip-path:url(#clip-path-4);}.cls-14{opacity:0.5;}.cls-15{fill:#fff;}.cls-16{clip-path:url(#clip-path-5);}.cls-18{fill:#68a9fd;}.cls-19{fill:#f6f9ff;}</style><clipPath id="clip-path" transform="translate(-517.573 -428.157)"><circle class="cls-1" cx="1186.705" cy="870.054" r="376.656"/></clipPath><clipPath id="clip-path-2" transform="translate(-517.573 -428.157)"><path class="cls-2" d="M2177.145,1462.84s115.777,49.364,60.329,197.99c-52.237,140.018-863.959,74.084-868.325,62.1-5.257-14.426-21.428-129-4.568-135.712S1986.849,1457.9,1986.849,1457.9Z"/></clipPath><clipPath id="clip-path-3" transform="translate(-517.573 -428.157)"><path class="cls-3" d="M2038.694,815.838s130.511,54.581,168.918,133.224-98.761,486.491-124.366,493.807-290.8,12.8-310.915,0-10.171-472.343,17.263-510.75,131.024-116.281,131.024-116.281Z"/></clipPath><clipPath id="clip-path-4" transform="translate(-517.573 -428.157)"><path class="cls-2" d="M2011.909,526.879c20.776,10.756,49.7,56.389,30.5,93.779-21.471,41.81-67.755,84.8-73.966,85.794s-14.558-48.614-14.558-48.614c44.8-8.929,24.441-52.973,17.432-52.7s-20.948,29.135-25.142,23.738c-3.214-4.136,1.631-49.178,4.072-70.009,0,0-94.345,58.327-155.614,35.415,0,0-29.847-100.957,59.475-121.38S2011.909,526.879,2011.909,526.879Z"/></clipPath><clipPath id="clip-path-5" transform="translate(-517.573 -428.157)"><path class="cls-2" d="M1490.61,1445.117s695.749-15.147,699.5-8.215,2.466,31.519-4.182,32.675-678.95,15.555-688.192,9.779S1490.61,1445.117,1490.61,1445.117Z"/></clipPath></defs><title>buildinganapp1</title><rect class="cls-4" x="816.989" y="1169.974" width="95.502" height="50.318" transform="translate(569.61 -691.324) rotate(44.561)"/><circle class="cls-1" cx="669.131" cy="441.897" r="376.656"/><g class="cls-5"><path class="cls-6" d="M896.759,1034.894c-72.75-9.926-138.744.3-138.837,0-.222-.709-1.929-264.017-1.929-264.017l555.423,24.105L808.661,717.137,912.779,497.874l704.009,135.65-48.057,379.193h-287.5l285.875,34.064-93.638,180.35-535.538,4.77L800.76,1071.66l316.953-22.318S996.294,1048.474,896.759,1034.894Z" transform="translate(-517.573 -428.157)"/></g><path class="cls-2" d="M876.643,1184.909a440.629,440.629,0,1,1,146.94,95.944A439.135,439.135,0,0,1,876.643,1184.909Zm571.206-580.037A372.181,372.181,0,1,0,1558.873,867.2,369.748,369.748,0,0,0,1447.849,604.872Z" transform="translate(-517.573 -428.157)"/><path class="cls-2" d="M592.365,1539.267l-65.676-64.677a30.555,30.555,0,0,1-.332-43.209l252.194-256.093a30.555,30.555,0,0,1,43.209-.331l65.676,64.676a30.554,30.554,0,0,1,.332,43.209L635.574,1538.935A30.555,30.555,0,0,1,592.365,1539.267Z" transform="translate(-517.573 -428.157)"/><path class="cls-4" d="M1186.624,1280.3a410.684,410.684,0,1,1,292.384-122.392l-1.813-1.785,1.813,1.785a408.966,408.966,0,0,1-289.156,122.38C1188.778,1280.3,1187.7,1280.3,1186.624,1280.3Zm.162-815.4c-1.066,0-2.123,0-3.189.012a406.572,406.572,0,1,0,3.189-.012Z" transform="translate(-517.573 -428.157)"/><path class="cls-4" d="M636.186,1528.575l-99.479-97.964a12.269,12.269,0,0,1-.133-17.351l7.876-8a12.269,12.269,0,0,1,17.35-.133l99.479,97.964a12.269,12.269,0,0,1,.133,17.351l-7.876,8A12.269,12.269,0,0,1,636.186,1528.575Z" transform="translate(-517.573 -428.157)"/><path class="cls-7" d="M1789.594,932.119s-41.5,49.411-64.3,131.987c-21.049,76.244-82.42,357.726-82.42,357.726h157.457Z" transform="translate(-517.573 -428.157)"/><path class="cls-2" d="M1180.806,1566.134s-28.246-1.026-42.8,15.048c-14.009,15.471-17.649,57.941,3.89,88.884,0,0,15.084,16.073,37.583,22.711,0,0-19.193-44.566-18.437-74.8S1180.806,1566.134,1180.806,1566.134Z" transform="translate(-517.573 -428.157)"/><path class="cls-4" d="M1161.991,1673.954c-23.92-38.636-17.229-111.5,18.815-107.82,51.957,5.305,187.776,47.932,187.776,47.932l7.995,87.315s-121.122,6.234-193.672-7.586C1173.112,1691.929,1167.147,1682.283,1161.991,1673.954Z" transform="translate(-517.573 -428.157)"/><path class="cls-8" d="M1366.175,1622.265s-58.857-18.448-65.007,0-1.42,51.537,14.392,61.2,54.985,3.626,54.985,3.626Z" transform="translate(-517.573 -428.157)"/><path class="cls-4" d="M1509.835,1449.232s-71.366-9.163-105.894,57.146c-31.848,61.164-1.847,163.456,125.593,174.538S2007.9,1663.37,2007.9,1663.37V1473.882Z" transform="translate(-517.573 -428.157)"/><path class="cls-2" d="M2177.145,1462.84s115.777,49.364,60.329,197.99c-52.237,140.018-863.959,74.084-868.325,62.1-5.257-14.426-21.428-129-4.568-135.712S1986.849,1457.9,1986.849,1457.9Z" transform="translate(-517.573 -428.157)"/><g class="cls-9"><path class="cls-10" d="M1762.566,1485.649s150.163,37.6,280.364,29.738,190.893-34.67,190.893-34.67l-32.112-31.485-418.125,8.67Z" transform="translate(-517.573 -428.157)"/><path class="cls-4" d="M1357.1,1657.353a2.455,2.455,0,0,1-.054-4.909c1.816-.04,183.932-4.193,385.822-17.157,267.012-17.146,447.169-41.847,520.995-71.432a2.455,2.455,0,0,1,1.827,4.557c-41.514,16.636-115.146,31.659-218.853,44.652-82.848,10.378-185.017,19.5-303.67,27.124-201.991,12.97-384.195,17.125-386.012,17.165Z" transform="translate(-517.573 -428.157)"/></g><path class="cls-3" d="M2038.694,815.838s130.511,54.581,168.918,133.224-98.761,486.491-124.366,493.807-290.8,12.8-310.915,0-10.171-472.343,17.263-510.75,131.024-116.281,131.024-116.281Z" transform="translate(-517.573 -428.157)"/><g class="cls-11"><path class="cls-8" d="M1964.5,1061.3a2.614,2.614,0,0,1,2.567-2.624c15.336-.278,94.234-1.5,99.376,2.662,5.7,4.614-1.554,133.815-10.783,134.474s-85.694,4.615-88.331-1.977C1964.918,1187.8,1964.549,1079.466,1964.5,1061.3Z" transform="translate(-517.573 -428.157)"/></g><path class="cls-8" d="M1985.766,543.427c-17.123-18.228-77.223-36.118-124.431-24.812-26.612,6.372-46.532,28.541-50.99,55.54-5.549,33.613-10.565,67.395-12.759,101.415-1.832,28.408-5.07,65.22,9.594,91.1,9.638,17.008,33.771,18.326,51.11,18.613,2.886.047,30.26-2.735,29.613-6.534,6.232,36.573,27.877,119.462,31.594,130.508,5.222,15.522,107.453-43,123.826-63.4s-74.875-139.4-74.875-139.4C1977.452,681.039,2009.589,568.788,1985.766,543.427Z" transform="translate(-517.573 -428.157)"/><path class="cls-12" d="M1860.005,610.342s-39.589,55.909-30.493,61.571,37.318-8.272,37.318-8.272h0a9.967,9.967,0,0,1-6.417,8.772c-10.673,4.052-31.408,11.013-36.081,2.532C1816.122,660.043,1860.005,610.342,1860.005,610.342Z" transform="translate(-517.573 -428.157)"/><path class="cls-12" d="M1887.9,778.748s24.4-15.182,37.975-33.4c0,0,7.709,56.266-28.236,79.352Z" transform="translate(-517.573 -428.157)"/><path class="cls-2" d="M2011.909,526.879c20.776,10.756,49.7,56.389,30.5,93.779-21.471,41.81-67.755,84.8-73.966,85.794s-14.558-48.614-14.558-48.614c44.8-8.929,24.441-52.973,17.432-52.7s-20.948,29.135-25.142,23.738c-3.214-4.136,1.631-49.178,4.072-70.009,0,0-94.345,58.327-155.614,35.415,0,0-29.847-100.957,59.475-121.38S2011.909,526.879,2011.909,526.879Z" transform="translate(-517.573 -428.157)"/><g class="cls-13"><path class="cls-14" d="M1782.208,573.264c8.517-.2,115.94-22.517,124.564-24.434s-11.019,20.6,1.437,15.81,55.1-19.163,56.533-16.768-18.562,81.005-18.562,81.005-8.746-57.05-10.183-56.571-80.488,43.6-109.233,44.076-40.244-3.832-42.64-19.642S1782.208,573.264,1782.208,573.264Z" transform="translate(-517.573 -428.157)"/></g><path class="cls-4" d="M1890.127,694.107l-13.464-4.308a1.582,1.582,0,0,0-.964,3.013l4.7,1.5c-5.042,29.251-56.52,27.9-57.033,27.877a1.554,1.554,0,0,0-1.633,1.528,1.581,1.581,0,0,0,1.528,1.633c.111,0,.732.023,1.767.023a115.075,115.075,0,0,0,26.054-3.062c18.726-4.6,29.882-13.942,32.344-27.031l5.741,1.837a1.582,1.582,0,0,0,.964-3.013Z" transform="translate(-517.573 -428.157)"/><path class="cls-15" d="M1958.386,611.84l-30.524,2.091a28.629,28.629,0,0,0-54.868-8.566c-10.395-6.036-18.533-3.911-22.971-1.661a28.644,28.644,0,1,0,.282,5.308c2.3-1.7,9.956-6.028,21.2.994a28.611,28.611,0,1,0,56.38,8.68l30.825-2.112a2.373,2.373,0,1,0-.325-4.734Z" transform="translate(-517.573 -428.157)"/><path class="cls-15" d="M1926.573,911.752l19.223,29.064a29.32,29.32,0,0,0,44.518,5.241c30.6-28.765,75.945-79.82,65.933-122.146l-17.553-8.073S1982.833,898.41,1926.573,911.752Z" transform="translate(-517.573 -428.157)"/><path class="cls-15" d="M1919.5,909.256l-23.634,18.705a19.137,19.137,0,0,1-30.833-12.236c-3.218-22.623-4.093-52.908,8.221-74.793l25.021-13.554Z" transform="translate(-517.573 -428.157)"/><circle class="cls-7" cx="1914.266" cy="993.837" r="12.307" transform="translate(-659.647 1216.521) rotate(-45)"/><circle class="cls-7" cx="1393.458" cy="656.434" r="12.307"/><circle class="cls-7" cx="1388.727" cy="747.187" r="12.307"/><circle class="cls-7" cx="1384.386" cy="837.941" r="12.307"/><circle class="cls-7" cx="1384.386" cy="928.695" r="12.307"/><path class="cls-3" d="M2207.612,949.062s102.6,238.589,91.67,364.269c-7.908,90.93-408.049,149.509-408.049,149.509l-44.356-71.5,296.7-145.231S2028.888,988.508,2207.612,949.062Z" transform="translate(-517.573 -428.157)"/><path class="cls-7" d="M1942.485,1344.546l201.092-98.433s-50.707-104.577-40.028-173.829c0,0-27.334,102.086,16.74,163.238C2120.289,1235.522,1946.194,1335.631,1942.485,1344.546Z" transform="translate(-517.573 -428.157)"/><path class="cls-7" d="M2207.612,949.062s-83.405-17.63-104.063,123.222c0,0-7.967-133.834,94.179-140.165Z" transform="translate(-517.573 -428.157)"/><path class="cls-7" d="M2098.647,1420.532l-122.256,25.545s92.169,2.207,106.855-3.208C2083.246,1442.869,2095.831,1432.014,2098.647,1420.532Z" transform="translate(-517.573 -428.157)"/><path class="cls-2" d="M1490.61,1445.117s695.749-15.147,699.5-8.215,2.466,31.519-4.182,32.675-678.95,15.555-688.192,9.779S1490.61,1445.117,1490.61,1445.117Z" transform="translate(-517.573 -428.157)"/><g class="cls-16"><path class="cls-4" d="M1934.028,1427.63s3.533,51.715,0,53.087-431.98,9.941-443.627,4.429-15.709-43.089-7.477-45.659,451.1-11.857,451.1-11.857" transform="translate(-517.573 -428.157)"/></g><path class="cls-17" d="M1312.746,1170.817a4.218,4.218,0,0,1,3.783-6c55.341-.594,449.281-4.591,461.879,1.776,13.551,6.849,162.24,268.324,155.391,272.89s-428.553,11.28-443.189,5.63C1464.406,1435,1340.515,1230.288,1312.746,1170.817Z" transform="translate(-517.573 -428.157)"/><ellipse class="cls-15" cx="1631.018" cy="1322.83" rx="31.165" ry="35.556" transform="translate(-985.461 826.162) rotate(-37.174)"/><rect class="cls-15" x="795.15" y="474.279" width="264.529" height="479.981" rx="59.784" transform="translate(1124.111 -641.302) rotate(90)"/><rect class="cls-18" x="190.119" y="174.116" width="439.446" height="223.993" rx="39.516"/><path class="cls-15" d="M820.038,671.962a6.363,6.363,0,0,1,6.146-5.314,6.809,6.809,0,0,1,3.927,1.155,6.371,6.371,0,0,1,2.588,3.7q2.495,22,3.465,43.528t1.063,43.712a5.891,5.891,0,0,1-1.109,3.374,6.175,6.175,0,0,1-2.541,1.987,8.458,8.458,0,0,1-3.328.647,8.248,8.248,0,0,1-3.373-.694,7.414,7.414,0,0,1-2.68-1.987,6.29,6.29,0,0,1-1.386-3.327q-.093-10.442.37-20.469t0-20.471c-.309.124-.647.247-1.017.37s-.771.247-1.2.37q-5.177-.091-9.981-.462t-9.519-.555q-4.713-.185-9.472.092A61.3,61.3,0,0,0,782.24,719l-.925,36.966a6.021,6.021,0,0,1-1.986,4.528,6.124,6.124,0,0,1-3.974,1.479,6.674,6.674,0,0,1-4.113-1.479,6.254,6.254,0,0,1-2.31-4.436v-84.1a5.834,5.834,0,0,1,2.31-3.789,6.394,6.394,0,0,1,3.836-1.155,7.069,7.069,0,0,1,3.973,1.386,6.947,6.947,0,0,1,2.634,3.835l.555,34.1a70.676,70.676,0,0,1,9.842-1.11q4.758-.183,9.473.047t9.518.6q4.8.372,9.981.463a2.315,2.315,0,0,0,.647.231,2.415,2.415,0,0,1,.647.231q-.555-9.15-.97-17.421T820.038,671.962Z" transform="translate(-517.573 -428.157)"/><path class="cls-15" d="M852.476,680.1a7.272,7.272,0,0,1-4.066-1.756,5.144,5.144,0,0,1-1.71-3.1,5.07,5.07,0,0,1,.832-3.42,6.748,6.748,0,0,1,3.557-2.633q9.612-1.2,17.375-1.571t15.156-.324q7.392.048,15.2.37t17.421.416a6.847,6.847,0,0,1,3.7,2.356,5.342,5.342,0,0,1,1.155,3.373,4.931,4.931,0,0,1-1.386,3.235,7.154,7.154,0,0,1-3.927,2.033q-3.882,0-6.931.046l-5.961.093q-2.912.047-5.961.138t-6.931.093q.09,9.7.138,19.268t.231,19.038q.185,9.474.555,19.038t1.2,19.268a6.539,6.539,0,0,1-1.709,4.344,8.361,8.361,0,0,1-3.7,2.4,6.554,6.554,0,0,1-4.205-.093,5.567,5.567,0,0,1-3.235-3.142q-.924-9.981-1.063-20.008t.047-20.054q.183-10.026.508-20.054t.323-20.008q-4.158.093-7.3,0t-6.053-.139q-2.91-.045-6.007.092T852.476,680.1Z" transform="translate(-517.573 -428.157)"/><path class="cls-15" d="M984.445,755.044q-1.941,3.327-3.881,4.02a4.731,4.731,0,0,1-3.558,0,6.782,6.782,0,0,1-2.727-2.125,10.63,10.63,0,0,1-1.478-2.357,80.915,80.915,0,0,1-3.189-9.1q-1.524-5.221-2.957-11.044T963.7,722.467q-1.525-6.144-3.142-11.875t-3.42-10.767a54.32,54.32,0,0,0-3.927-8.733,141.412,141.412,0,0,0-3.466,16.173q-1.247,8.133-2.033,16.311t-1.386,16.312q-.6,8.133-1.618,16.172a8.222,8.222,0,0,1-2.079,4.9,5.335,5.335,0,0,1-3.7,1.618,7,7,0,0,1-4.159-1.386,10.174,10.174,0,0,1-3.374-4.206q.369-11.367,1.664-23.1t3-22.734q1.71-11,3.558-20.747t3.235-16.959a6.443,6.443,0,0,1,2.819-3.188,10.058,10.058,0,0,1,4.3-1.34,11.593,11.593,0,0,1,4.482.508,5.538,5.538,0,0,1,3.188,2.357,78.277,78.277,0,0,1,8.826,15.249,141.488,141.488,0,0,1,5.961,16.173q2.4,8.04,4.02,15.387t3.189,12.891q2.031-8.778,4.852-17.373t5.59-16.219q2.774-7.624,5.13-13.862a97.351,97.351,0,0,0,3.373-10.305,7.4,7.4,0,0,1,2.311-3.7,8.083,8.083,0,0,1,3.834-1.987,6.114,6.114,0,0,1,3.975.508,5.615,5.615,0,0,1,2.726,3.7q1.663,11.277,3.835,22.041t4.3,21.21q2.124,10.444,3.973,20.793t2.68,20.7a5.557,5.557,0,0,1-1.34,4.667,5.491,5.491,0,0,1-3.743,1.71,6.8,6.8,0,0,1-4.205-1.34,6.959,6.959,0,0,1-2.726-4.574q-1.849-8.132-3.466-15.85t-3-15.341q-1.386-7.625-2.542-15.387t-2.079-15.988q-2.034,7.3-3.881,14.648T995.3,724.315q-2.079,7.441-4.713,15.11T984.445,755.044Z" transform="translate(-517.573 -428.157)"/><path class="cls-15" d="M1043.869,673.533a5.593,5.593,0,0,1,2.5-3.789,7.354,7.354,0,0,1,4.251-1.109,8.421,8.421,0,0,1,4.39,1.479,6.851,6.851,0,0,1,2.819,3.881q0,10.351-.185,19.962t-.416,19.084q-.233,9.474-.416,19.13t-.277,20.008a100.241,100.241,0,0,0,11.044.924q5.866.186,11.921.139t11.922-.231q5.868-.184,11.136-.185a6.853,6.853,0,0,1,3.7,2.356,5.35,5.35,0,0,1,1.156,3.374,4.934,4.934,0,0,1-1.386,3.234,7.154,7.154,0,0,1-3.928,2.033q-5.823,0-12.568.37t-13.678.555q-6.932.183-13.632.045a101.143,101.143,0,0,1-12.429-.97,4.984,4.984,0,0,1-4.113-.97,6.669,6.669,0,0,1-2.449-4.76q0-10.9.093-21.394t.23-20.885q.139-10.4.231-20.887T1043.869,673.533Z" transform="translate(-517.573 -428.157)"/><path class="cls-15" d="M1305.474,747.854H1418.1a38.447,38.447,0,0,1,38.447,38.447v254.28a38.446,38.446,0,0,1-38.446,38.446H1305.474a38.447,38.447,0,0,1-38.447-38.447V786.3A38.447,38.447,0,0,1,1305.474,747.854Z" transform="translate(1757.653 -876.504) rotate(90)"/><rect class="cls-18" x="694.683" y="406.578" width="299.062" height="157.409" rx="22.391"/><path class="cls-15" d="M1267.148,887.972a5.75,5.75,0,0,1-3.222-1.391,4.077,4.077,0,0,1-1.355-2.452,4.011,4.011,0,0,1,.66-2.708,5.342,5.342,0,0,1,2.818-2.087q3-.22,6.626-.586t7.247-.475a50.55,50.55,0,0,1,6.991.256,18.387,18.387,0,0,1,5.858,1.538,5.763,5.763,0,0,1,2.452,3.258,5.42,5.42,0,0,1-.11,3.366,3.777,3.777,0,0,1-2.123,2.161,4.519,4.519,0,0,1-3.735-.367,11.838,11.838,0,0,0-4.83-.8q.363,4.1.987,9t1.209,10.212q.583,5.308.914,10.726a101.553,101.553,0,0,1,.11,10.541,57.637,57.637,0,0,1-1.207,9.7,28.457,28.457,0,0,1-3.039,8.162,11.518,11.518,0,0,1-4.246,4.21,18.8,18.8,0,0,1-5.966,2.2,26.083,26.083,0,0,1-6.809.367,31.654,31.654,0,0,1-6.844-1.245,26.326,26.326,0,0,1-6.04-2.636,14.617,14.617,0,0,1-4.357-3.842,12.871,12.871,0,0,1-1.9-3.734,26.722,26.722,0,0,1-.989-4.246,37.759,37.759,0,0,1-.4-4.357q-.073-2.157-.146-4.136a4.713,4.713,0,0,1,1.867-3.037,5.347,5.347,0,0,1,3.111-.989,5.71,5.71,0,0,1,3.221,1.025,5.261,5.261,0,0,1,2.123,3q.072,2.931-.036,5.016a11.091,11.091,0,0,0,.329,3.623,5.684,5.684,0,0,0,1.757,2.71,13.833,13.833,0,0,0,4.32,2.268q6.221,2.124,9.589,0t4.687-8.639a54.132,54.132,0,0,0,1.024-10.76q0-5.711-.513-11.568T1275.9,899.54q-.769-5.856-1.207-11.275a13.232,13.232,0,0,1-4.174-.072A12.2,12.2,0,0,0,1267.148,887.972Z" transform="translate(-517.573 -428.157)"/><path class="cls-15" d="M1299.945,949.322a52.63,52.63,0,0,0,2.489-7.724q1.17-4.647,2.342-10.212t2.49-11.64q1.317-6.078,2.817-11.97t3.332-11.2a56.519,56.519,0,0,1,4.1-9.333,23.472,23.472,0,0,1,5.051-6.407,9.338,9.338,0,0,1,6.223-2.378q1.977,0,3.916,2.378a30.856,30.856,0,0,1,3.807,6.369q1.868,3.992,3.733,9.262t3.7,11.053q1.829,5.784,3.661,11.786t3.623,11.421q1.794,5.418,3.587,9.956a43.457,43.457,0,0,0,3.624,7.395,4.685,4.685,0,0,1-.146,3.477,4.738,4.738,0,0,1-5.2,2.71,5.68,5.68,0,0,1-3.222-1.722,50.4,50.4,0,0,1-3.22-5.782q-1.466-3.077-2.526-5.93t-1.72-5.162q-.658-2.3-.878-3.55-3.661,0-7.029-.037t-6.662-.036q-3.3,0-6.625-.038t-7.064-.11q-.88,3.37-1.355,5.894t-.916,4.868q-.436,2.346-1.1,4.833a55.59,55.59,0,0,1-1.9,5.71,5.351,5.351,0,0,1-3.039,1.976,5.065,5.065,0,0,1-3.146-.256,4.987,4.987,0,0,1-2.307-2.087A4.7,4.7,0,0,1,1299.945,949.322Zm27.966-59.519q-1.026-.291-2.05,1.317a22.2,22.2,0,0,0-2.014,4.394q-.988,2.783-1.94,6.369t-1.866,7.247q-.916,3.662-1.721,6.991t-1.537,5.674q3.147.074,5.82.146t5.271.183q2.6.111,5.27.22t5.748.183q-1.757-4.317-2.965-8.382t-2.344-8.09q-1.133-4.024-2.452-8.053A79.168,79.168,0,0,0,1327.911,889.8Z" transform="translate(-517.573 -428.157)"/><path class="cls-15" d="M1391.748,952.983a5.486,5.486,0,0,1-2.27,1.646,4.045,4.045,0,0,1-4.172-.805,7.768,7.768,0,0,1-1.539-1.867q-6.077-17.277-12.3-33.675t-12.812-33.311a4.174,4.174,0,0,1,.952-3.368,5.66,5.66,0,0,1,2.929-1.756,6.574,6.574,0,0,1,3.623.146,6.076,6.076,0,0,1,3.111,2.27q2.709,7.468,5.271,13.945t4.942,12.885q2.379,6.407,4.612,13.105t4.357,14.605q2.856-7.027,5.489-13.91t5.09-13.763q2.451-6.88,4.794-13.8t4.685-14.018a4.393,4.393,0,0,1,2.71-2.2,4.856,4.856,0,0,1,3.22.219,6.046,6.046,0,0,1,2.6,2.2,5.785,5.785,0,0,1,.988,3.588q-2.416,8.562-5.491,17.019t-6.553,16.912q-3.479,8.454-7.1,16.911T1391.748,952.983Z" transform="translate(-517.573 -428.157)"/><path class="cls-15" d="M1424.985,949.322a52.64,52.64,0,0,0,2.488-7.724q1.171-4.647,2.343-10.212t2.489-11.64q1.317-6.078,2.818-11.97t3.332-11.2a56.435,56.435,0,0,1,4.1-9.333,23.451,23.451,0,0,1,5.05-6.407,9.34,9.34,0,0,1,6.223-2.378q1.978,0,3.917,2.378a30.9,30.9,0,0,1,3.807,6.369q1.868,3.992,3.733,9.262t3.7,11.053q1.83,5.784,3.661,11.786t3.624,11.421q1.794,5.418,3.587,9.956a43.536,43.536,0,0,0,3.623,7.395,4.685,4.685,0,0,1-.145,3.477,4.738,4.738,0,0,1-5.2,2.71,5.68,5.68,0,0,1-3.222-1.722,50.555,50.555,0,0,1-3.221-5.782q-1.464-3.077-2.525-5.93t-1.721-5.162q-.658-2.3-.877-3.55-3.663,0-7.029-.037t-6.663-.036q-3.294,0-6.624-.038t-7.065-.11q-.879,3.37-1.355,5.894t-.915,4.868q-.438,2.346-1.1,4.833a55.8,55.8,0,0,1-1.9,5.71,5.354,5.354,0,0,1-3.039,1.976,5.069,5.069,0,0,1-3.147-.256,4.99,4.99,0,0,1-2.306-2.087A4.69,4.69,0,0,1,1424.985,949.322ZM1452.95,889.8q-1.026-.291-2.049,1.317a22.2,22.2,0,0,0-2.015,4.394q-.987,2.783-1.939,6.369t-1.866,7.247q-.918,3.662-1.722,6.991t-1.536,5.674q3.147.074,5.82.146t5.271.183q2.6.111,5.27.22t5.748.183q-1.757-4.317-2.965-8.382t-2.344-8.09q-1.134-4.024-2.452-8.053A78.956,78.956,0,0,0,1452.95,889.8Z" transform="translate(-517.573 -428.157)"/><path class="cls-15" d="M1363.9,455.252h119.975a44.436,44.436,0,0,1,44.436,44.436V782.441a44.437,44.437,0,0,1-44.437,44.437H1363.9a44.436,44.436,0,0,1-44.436-44.436V499.688A44.436,44.436,0,0,1,1363.9,455.252Z" transform="translate(1547.381 -1210.982) rotate(90)"/><rect class="cls-18" x="740.386" y="128.367" width="331.86" height="169.082" rx="24.554"/><path class="cls-15" d="M1322.9,605.972a7.044,7.044,0,0,1,.952-4.442,5.347,5.347,0,0,1,2.765-2.266,4.9,4.9,0,0,1,3.4.135,5.464,5.464,0,0,1,2.855,2.857,17.754,17.754,0,0,1,7.616-2.992,43.824,43.824,0,0,1,10.7-.544,53.956,53.956,0,0,1,11.83,2.13,38.119,38.119,0,0,1,10.971,5.168,29.118,29.118,0,0,1,8.159,8.476,23.246,23.246,0,0,1,3.4,12.057,40.935,40.935,0,0,1-2.267,15.141,34.4,34.4,0,0,1-6.618,11.242,32.332,32.332,0,0,1-9.61,7.343,32.847,32.847,0,0,1-11.06,3.354,29.629,29.629,0,0,1-11.061-.815,25.151,25.151,0,0,1-9.7-4.987q-.183,3.9-.091,7.48t.182,7.071q.088,3.492.18,7.071t0,7.479a6.758,6.758,0,0,1-1.722,4.534,4.945,4.945,0,0,1-3.444,1.586,5.28,5.28,0,0,1-3.582-1.36,6.387,6.387,0,0,1-2.04-4.306q0-10.878-.045-21.214t-.226-20.4q-.185-10.064-.545-19.946T1322.9,605.972Zm11.967,8.16q.361,4.443.544,8.43t.226,7.933q.045,3.945,0,7.933t-.136,8.431a7.161,7.161,0,0,1,2.9.272,14.146,14.146,0,0,0,6.345,3.581,20.253,20.253,0,0,0,7.389.544,24.046,24.046,0,0,0,7.435-2.085,23.63,23.63,0,0,0,6.527-4.4,21.973,21.973,0,0,0,4.624-6.346,17.953,17.953,0,0,0,1.768-7.978,16.584,16.584,0,0,0-2-8.2,20.326,20.326,0,0,0-5.213-6.12,24.7,24.7,0,0,0-7.3-3.944,31.572,31.572,0,0,0-8.249-1.677,27.586,27.586,0,0,0-8.07.635A18.792,18.792,0,0,0,1334.863,614.132Z" transform="translate(-517.573 -428.157)"/><path class="cls-15" d="M1449,602.618a6.245,6.245,0,0,1,6.028-5.213,6.684,6.684,0,0,1,3.854,1.133,6.253,6.253,0,0,1,2.538,3.626q2.447,21.577,3.4,42.7t1.043,42.882a5.763,5.763,0,0,1-1.087,3.308,6.04,6.04,0,0,1-2.494,1.95,8.288,8.288,0,0,1-3.263.635,8.1,8.1,0,0,1-3.31-.681,7.274,7.274,0,0,1-2.629-1.948,6.161,6.161,0,0,1-1.359-3.264q-.091-10.243.362-20.081t0-20.082c-.3.123-.635.243-1,.364s-.756.241-1.179.362q-5.078-.088-9.79-.454t-9.339-.543q-4.623-.182-9.293.09a60.208,60.208,0,0,0-9.564,1.36l-.907,36.263a5.905,5.905,0,0,1-1.948,4.443,6,6,0,0,1-3.9,1.45,6.539,6.539,0,0,1-4.034-1.45,6.135,6.135,0,0,1-2.267-4.351v-82.5a5.724,5.724,0,0,1,2.267-3.718,6.279,6.279,0,0,1,3.762-1.133,6.94,6.94,0,0,1,3.9,1.361,6.8,6.8,0,0,1,2.583,3.762l.544,33.453a69.145,69.145,0,0,1,9.656-1.088q4.667-.18,9.291.046t9.339.589q4.711.363,9.791.453a2.245,2.245,0,0,0,.635.226,2.4,2.4,0,0,1,.635.228q-.546-8.976-.953-17.09T1449,602.618Z" transform="translate(-517.573 -428.157)"/><path class="cls-15" d="M1479.1,605.972a7.037,7.037,0,0,1,.953-4.442,5.34,5.34,0,0,1,2.765-2.266,4.895,4.895,0,0,1,3.4.135,5.469,5.469,0,0,1,2.856,2.857,17.744,17.744,0,0,1,7.615-2.992,43.83,43.83,0,0,1,10.7-.544,53.964,53.964,0,0,1,11.831,2.13,38.126,38.126,0,0,1,10.97,5.168,29.118,29.118,0,0,1,8.159,8.476,23.237,23.237,0,0,1,3.4,12.057,40.935,40.935,0,0,1-2.267,15.141,34.4,34.4,0,0,1-6.618,11.242,32.328,32.328,0,0,1-9.609,7.343,32.852,32.852,0,0,1-11.061,3.354,29.629,29.629,0,0,1-11.061-.815,25.151,25.151,0,0,1-9.7-4.987q-.183,3.9-.091,7.48t.182,7.071q.088,3.492.181,7.071t0,7.479a6.764,6.764,0,0,1-1.723,4.534,4.944,4.944,0,0,1-3.444,1.586,5.28,5.28,0,0,1-3.582-1.36,6.382,6.382,0,0,1-2.039-4.306q0-10.878-.046-21.214t-.226-20.4q-.183-10.064-.545-19.946T1479.1,605.972Zm11.968,8.16q.36,4.443.543,8.43t.226,7.933q.046,3.945,0,7.933t-.135,8.431a7.158,7.158,0,0,1,2.9.272,14.144,14.144,0,0,0,6.346,3.581,20.249,20.249,0,0,0,7.389.544,24.048,24.048,0,0,0,7.434-2.085,23.615,23.615,0,0,0,6.527-4.4,21.955,21.955,0,0,0,4.624-6.346,17.953,17.953,0,0,0,1.768-7.978,16.584,16.584,0,0,0-2-8.2,20.337,20.337,0,0,0-5.212-6.12,24.713,24.713,0,0,0-7.3-3.944,31.564,31.564,0,0,0-8.249-1.677,27.586,27.586,0,0,0-8.07.635A18.787,18.787,0,0,0,1491.069,614.132Z" transform="translate(-517.573 -428.157)"/><path class="cls-15" d="M923.813,845.038h102.7a35.746,35.746,0,0,1,35.746,35.746v211.624a35.746,35.746,0,0,1-35.746,35.746h-102.7a35.746,35.746,0,0,1-35.746-35.746V880.783A35.745,35.745,0,0,1,923.813,845.038Z" transform="translate(1444.188 -416.727) rotate(90)"/><rect class="cls-18" x="330.493" y="488.757" width="253.614" height="139.364" rx="16.759"/><path class="cls-15" d="M928,948.209a5.438,5.438,0,0,1,.827-4.052,4.634,4.634,0,0,1,2.753-1.888,4.389,4.389,0,0,1,3.266.629,5.559,5.559,0,0,1,2.361,3.423q.708,4.092,1.023,8.184t.315,8.34a5.692,5.692,0,0,1-1.692,4.014,5.856,5.856,0,0,1-3.423,1.613,5.234,5.234,0,0,1-3.541-.9,4.786,4.786,0,0,1-1.967-3.62v-.629a20.839,20.839,0,0,0-18.532-8.695,26.407,26.407,0,0,0-10.033,2.833,34.353,34.353,0,0,0-8.971,6.491,20.455,20.455,0,0,0-4.13,6.059,35.48,35.48,0,0,0-2.44,7.515,43.783,43.783,0,0,0-.9,8.105,52.078,52.078,0,0,0,.433,7.947,39.1,39.1,0,0,0,1.574,7.043,18.966,18.966,0,0,0,2.557,5.273,19.51,19.51,0,0,0,5.705,5.351,27.394,27.394,0,0,0,7.358,3.186,32.216,32.216,0,0,0,8.144,1.1,33.85,33.85,0,0,0,8.184-.9,27.761,27.761,0,0,0,7.357-2.873,20.168,20.168,0,0,0,5.744-4.839,8.887,8.887,0,0,0,1.575-3.187,24.935,24.935,0,0,1,1.179-3.423,5.931,5.931,0,0,1,2.794-2.793,3.239,3.239,0,0,1,2.794.078,5.023,5.023,0,0,1,2.085,2.479,9.841,9.841,0,0,1,.747,4.406,16.064,16.064,0,0,1-3.777,9.994,28.359,28.359,0,0,1-9.325,7.279,45.415,45.415,0,0,1-12.708,4.092,48.046,48.046,0,0,1-13.967.393,40.584,40.584,0,0,1-13.1-3.817,26.1,26.1,0,0,1-10.072-8.576,31.521,31.521,0,0,1-3.778-7.594,50.284,50.284,0,0,1-2.32-9.6,67.389,67.389,0,0,1-.669-10.7,59.464,59.464,0,0,1,1.14-10.86,46.672,46.672,0,0,1,3.187-10.032,30.1,30.1,0,0,1,5.43-8.262,33.962,33.962,0,0,1,6.217-5.115,43.53,43.53,0,0,1,7.79-4.014,48.182,48.182,0,0,1,8.694-2.518,39.747,39.747,0,0,1,8.893-.708,29.814,29.814,0,0,1,8.38,1.5,20.727,20.727,0,0,1,7.161,4.092c-.053-.315-.106-.616-.158-.9S928.055,948.524,928,948.209Z" transform="translate(-517.573 -428.157)"/><path class="cls-15" d="M1004.017,964.655a3.721,3.721,0,0,1-.432,3.5,5.159,5.159,0,0,1-2.912,1.849,8.471,8.471,0,0,1-4.053-.039,7.687,7.687,0,0,1-3.777-2.085,16.287,16.287,0,0,0-1.18-5,16.7,16.7,0,0,0-2.754-4.6,15.036,15.036,0,0,0-4.092-3.383,9.484,9.484,0,0,0-5.036-1.259,13.633,13.633,0,0,0-6.61,1.927,12.9,12.9,0,0,0-4.564,4.643,14.769,14.769,0,0,0-1.888,6.492,15.219,15.219,0,0,0,1.494,7.4q.63,1.5,3.423,2.282t6.65,1.692q3.855.9,8.262,2.242a32.649,32.649,0,0,1,8.381,3.935,24.228,24.228,0,0,1,10.9,17.626,18.011,18.011,0,0,1-1.062,9.836,18.908,18.908,0,0,1-5.47,7.2,26.428,26.428,0,0,1-8.5,4.564,36.48,36.48,0,0,1-10.15,1.81,38.415,38.415,0,0,1-10.388-1.023,28.428,28.428,0,0,1-9.167-3.9,21.117,21.117,0,0,1-6.571-6.885,19.544,19.544,0,0,1-2.6-9.954,27.691,27.691,0,0,1,.158-3.03,8.28,8.28,0,0,1,.707-2.635,5.568,5.568,0,0,1,1.574-2.007,5.48,5.48,0,0,1,2.754-1.063,4.826,4.826,0,0,1,2.676.552,4.982,4.982,0,0,1,1.77,1.691,6.245,6.245,0,0,1,.865,2.519,13.573,13.573,0,0,1,.04,3.107,9.714,9.714,0,0,0,.983,5.942,11.886,11.886,0,0,0,3.738,4.092,16.491,16.491,0,0,0,5.351,2.36,19.383,19.383,0,0,0,5.824.59,33.972,33.972,0,0,0,5.744-.826,17.365,17.365,0,0,0,5.272-2.124,11.2,11.2,0,0,0,3.777-3.817,9.6,9.6,0,0,0,1.1-5.9,12.3,12.3,0,0,0-1.063-3.934,15.79,15.79,0,0,0-2.4-3.816,20.512,20.512,0,0,0-3.383-3.187,12.656,12.656,0,0,0-4.013-2.046q-3.15-.945-6.532-1.81t-6.57-1.968a42.777,42.777,0,0,1-6.02-2.6,20.118,20.118,0,0,1-5-3.7,16.1,16.1,0,0,1-3.423-5.312,20.78,20.78,0,0,1-1.338-7.437,21.281,21.281,0,0,1,1.928-9.521,22.72,22.72,0,0,1,5.312-7.239,24.161,24.161,0,0,1,7.4-4.6,22,22,0,0,1,8.105-1.612,33.882,33.882,0,0,1,10.072,1.415,25.271,25.271,0,0,1,8.026,4.092,22.1,22.1,0,0,1,5.666,6.492A25.23,25.23,0,0,1,1004.017,964.655Z" transform="translate(-517.573 -428.157)"/><path class="cls-15" d="M1063.271,964.655a3.721,3.721,0,0,1-.433,3.5,5.153,5.153,0,0,1-2.911,1.849,8.471,8.471,0,0,1-4.053-.039,7.687,7.687,0,0,1-3.777-2.085,16.261,16.261,0,0,0-1.181-5,16.7,16.7,0,0,0-2.753-4.6,15.051,15.051,0,0,0-4.092-3.383,9.487,9.487,0,0,0-5.037-1.259,13.639,13.639,0,0,0-6.61,1.927,12.9,12.9,0,0,0-4.563,4.643,14.77,14.77,0,0,0-1.889,6.492,15.232,15.232,0,0,0,1.5,7.4q.63,1.5,3.423,2.282t6.649,1.692q3.855.9,8.262,2.242a32.633,32.633,0,0,1,8.381,3.935,24.225,24.225,0,0,1,10.9,17.626,18.011,18.011,0,0,1-1.062,9.836,18.918,18.918,0,0,1-5.47,7.2,26.428,26.428,0,0,1-8.5,4.564,36.487,36.487,0,0,1-10.151,1.81,38.408,38.408,0,0,1-10.387-1.023,28.419,28.419,0,0,1-9.167-3.9,21.1,21.1,0,0,1-6.571-6.885,19.534,19.534,0,0,1-2.6-9.954,27.948,27.948,0,0,1,.157-3.03,8.307,8.307,0,0,1,.708-2.635,5.557,5.557,0,0,1,1.574-2.007,5.477,5.477,0,0,1,2.754-1.063,4.82,4.82,0,0,1,2.675.552,4.985,4.985,0,0,1,1.771,1.691,6.245,6.245,0,0,1,.865,2.519,13.63,13.63,0,0,1,.04,3.107,9.714,9.714,0,0,0,.983,5.942,11.886,11.886,0,0,0,3.738,4.092,16.472,16.472,0,0,0,5.351,2.36,19.38,19.38,0,0,0,5.824.59,33.987,33.987,0,0,0,5.744-.826,17.375,17.375,0,0,0,5.272-2.124,11.2,11.2,0,0,0,3.777-3.817,9.606,9.606,0,0,0,1.1-5.9,12.351,12.351,0,0,0-1.063-3.934,15.821,15.821,0,0,0-2.4-3.816,20.512,20.512,0,0,0-3.383-3.187,12.65,12.65,0,0,0-4.014-2.046q-3.148-.945-6.531-1.81t-6.57-1.968a42.727,42.727,0,0,1-6.02-2.6,20.081,20.081,0,0,1-5-3.7,16.072,16.072,0,0,1-3.423-5.312,20.78,20.78,0,0,1-1.338-7.437,21.267,21.267,0,0,1,1.928-9.521,22.705,22.705,0,0,1,5.312-7.239,24.15,24.15,0,0,1,7.4-4.6,22,22,0,0,1,8.1-1.612,33.884,33.884,0,0,1,10.073,1.415,25.271,25.271,0,0,1,8.026,4.092,22.119,22.119,0,0,1,5.666,6.492A25.23,25.23,0,0,1,1063.271,964.655Z" transform="translate(-517.573 -428.157)"/><rect class="cls-19" x="22.272" y="377.875" width="59.124" height="21.686" rx="3.436"/></svg>